<?xml version="1.0" standalone="no"?>
<svg height="500.000" preserveAspectRatio="none" viewBox="0.000 0.000 500.000 500.000" width="500.000" x="0.000" xmlns="http://www.w3.org/2000/svg" xmlns:svg="http://www.w3.org/2000/svg" xmlns:xlink="http://www.w3.org/1999/xlink" y="0.000">
<svg width="500" height="500" xmlns="http://www.w3.org/2000/svg"><defs><clipPath id="zsb8d9FMclipPath1"><path fill="#000000" stroke="none" d="M 0 0 L 500 0 L 500 500 L 0 500 Z"/></clipPath></defs><g><g clip-path="url(#zsb8d9FMclipPath1)"><path fill="#ffffff" stroke="none" d="M -50 -50 L 550 -50 L 550 550 L -50 550 Z"/><path fill="#000000" stroke="none" d="M 104.902 158.902 C 107.117 155.57 102.121 152.246 99.906 155.578 L 99.898 155.59 C 97.684 158.918 102.676 162.242 104.895 158.914 Z M 104.902 158.902"/><path fill="#000000" stroke="none" d="M 104.922 158.871 C 107.082 155.504 102.031 152.266 99.871 155.633 L 99.676 155.938 C 97.516 159.305 102.566 162.543 104.727 159.176 Z M 104.922 158.871"/><path fill="#000000" stroke="none" d="M 104.844 158.977 C 106.738 155.453 101.453 152.613 99.559 156.137 L 99.059 157.066 C 97.164 160.59 102.449 163.43 104.344 159.906 Z M 104.844 158.977"/><path fill="#000000" stroke="none" d="M 104.395 159.809 C 106.152 156.215 100.766 153.574 99.008 157.168 L 98.223 158.762 C 96.465 162.352 101.852 164.992 103.613 161.402 Z M 104.395 159.809"/><path fill="#000000" stroke="none" d="M 103.641 161.34 C 105.32 157.711 99.875 155.191 98.195 158.82 L 97.16 161.059 C 95.48 164.688 100.926 167.207 102.605 163.578 Z M 103.641 161.34"/><path fill="#000000" stroke="none" d="M 102.613 163.559 C 104.27 159.918 98.809 157.434 97.152 161.074 L 97.078 161.238 C 95.422 164.883 100.887 167.363 102.539 163.723 Z M 102.613 163.559"/><path fill="#000000" stroke="none" d="M 102.672 163.379 C 103.871 159.563 98.145 157.766 96.949 161.582 L 94.27 170.109 C 93.07 173.926 98.793 175.723 99.992 171.906 Z M 102.672 163.379"/><path fill="#000000" stroke="none" d="M 100.027 171.785 C 101.063 167.918 95.266 166.371 94.23 170.234 L 91.578 180.148 C 90.547 184.012 96.344 185.563 97.375 181.699 Z M 100.027 171.785"/><path fill="#000000" stroke="none" d="M 97.402 181.594 C 98.297 177.695 92.449 176.355 91.555 180.254 L 88.988 191.441 C 88.094 195.34 93.941 196.684 94.836 192.785 Z M 97.402 181.594"/><path fill="#000000" stroke="none" d="M 94.855 192.688 C 95.621 188.762 89.73 187.613 88.965 191.539 L 87.703 198.008 C 86.938 201.934 92.828 203.082 93.594 199.156 Z M 94.855 192.688"/><path fill="#000000" stroke="none" d="M 93.621 198.996 C 94.172 195.035 88.23 194.207 87.676 198.168 L 85.762 211.875 C 85.207 215.84 91.148 216.668 91.703 212.707 Z M 93.621 198.996"/><path fill="#000000" stroke="none" d="M 91.719 212.594 C 92.121 208.613 86.152 208.012 85.746 211.988 L 84.363 225.672 C 83.957 229.652 89.926 230.258 90.332 226.277 Z M 91.719 212.594"/><path fill="#000000" stroke="none" d="M 90.34 226.18 C 90.613 222.191 84.629 221.777 84.352 225.766 L 83.469 238.594 C 83.191 242.586 89.176 243 89.453 239.008 Z M 90.34 226.18"/><path fill="#000000" stroke="none" d="M 89.453 238.996 C 89.715 235.008 83.727 234.613 83.465 238.605 L 83.41 239.48 C 83.148 243.473 89.137 243.863 89.395 239.871 Z M 89.453 238.996"/><path fill="#000000" stroke="none" d="M 89.402 239.684 C 89.414 235.684 83.414 235.664 83.402 239.664 L 83.367 250.934 C 83.352 254.934 89.352 254.953 89.367 250.953 Z M 89.402 239.684"/><path fill="#000000" stroke="none" d="M 89.363 250.805 C 89.18 246.809 83.188 247.086 83.371 251.082 L 84.082 266.555 C 84.266 270.551 90.258 270.273 90.074 266.277 Z M 89.363 250.805"/><path fill="#000000" stroke="none" d="M 90.07 266.18 C 89.75 262.191 83.77 262.668 84.09 266.656 L 85.305 281.91 C 85.621 285.895 91.602 285.418 91.285 281.43 Z M 90.07 266.18"/><path fill="#000000" stroke="none" d="M 91.277 281.352 C 90.852 277.371 84.887 278.012 85.313 281.988 L 86.832 296.18 C 87.262 300.156 93.227 299.52 92.801 295.539 Z M 91.277 281.352"/><path fill="#000000" stroke="none" d="M 92.797 295.531 C 92.363 291.559 86.398 292.211 86.836 296.188 L 86.938 297.113 C 87.371 301.09 93.336 300.434 92.898 296.457 Z M 92.797 295.531"/><path fill="#000000" stroke="none" d="M 92.867 296.234 C 92.137 292.305 86.238 293.402 86.969 297.332 L 90.641 317.063 C 91.371 320.996 97.27 319.898 96.539 315.965 Z M 92.867 296.234"/><path fill="#000000" stroke="none" d="M 96.512 315.84 C 95.613 311.941 89.766 313.289 90.664 317.188 L 94.477 333.719 C 95.375 337.617 101.219 336.27 100.32 332.371 Z M 96.512 315.84"/><path fill="#000000" stroke="none" d="M 100.309 332.309 C 99.324 328.434 93.508 329.902 94.492 333.781 L 96.863 343.16 C 97.844 347.039 103.66 345.566 102.68 341.688 Z M 100.309 332.309"/><path fill="#000000" stroke="none" d="M 102.66 341.621 C 101.586 337.766 95.809 339.379 96.883 343.23 L 99.211 351.59 C 100.285 355.441 106.066 353.832 104.992 349.977 Z M 102.66 341.621"/><path fill="#000000" stroke="none" d="M 104.973 349.914 C 103.816 346.086 98.074 347.82 99.23 351.652 L 101.434 358.938 C 102.59 362.766 108.332 361.031 107.176 357.203 Z M 104.973 349.914"/><path fill="#000000" stroke="none" d="M 107.156 357.145 C 105.922 353.34 100.215 355.191 101.449 358.996 L 103.414 365.039 C 104.648 368.844 110.355 366.988 109.121 363.184 Z M 107.156 357.145"/><path fill="#000000" stroke="none" d="M 109.07 363.047 C 107.648 359.305 102.043 361.438 103.461 365.176 L 106.164 372.289 C 107.582 376.027 113.191 373.898 111.773 370.16 Z M 109.07 363.047"/><path fill="#000000" stroke="none" d="M 111.711 370.008 C 110.09 366.352 104.605 368.781 106.223 372.438 L 107.98 376.41 C 109.602 380.066 115.086 377.637 113.469 373.98 Z M 111.711 370.008"/><path fill="#000000" stroke="none" d="M 113.438 373.91 C 111.727 370.297 106.301 372.863 108.012 376.477 L 108.707 377.945 C 110.418 381.559 115.844 378.992 114.133 375.379 Z M 113.438 373.91"/><path fill="#000000" stroke="none" d="M 114.125 375.359 C 112.391 371.758 106.98 374.355 108.715 377.961 L 108.879 378.301 C 110.613 381.906 116.02 379.305 114.285 375.699 Z M 114.125 375.359"/><path fill="#000000" stroke="none" d="M 114.285 375.699 C 112.551 372.094 107.145 374.699 108.879 378.305 L 108.902 378.348 C 110.637 381.949 116.043 379.344 114.305 375.742 Z M 114.285 375.699"/><path fill="#000000" stroke="none" d="M 77.254 190.777 C 77.254 194.777 83.254 194.777 83.254 190.777 L 83.254 190.734 C 83.254 186.734 77.254 186.734 77.254 190.734 Z M 77.254 190.777"/><path fill="#000000" stroke="none" d="M 77.43 189.719 C 76.074 193.484 81.723 195.512 83.074 191.75 L 83.117 191.629 C 84.473 187.867 78.828 185.836 77.473 189.598 Z M 77.43 189.719"/><path fill="#000000" stroke="none" d="M 77.563 189.375 C 75.91 193.016 81.375 195.496 83.027 191.855 L 83.133 191.617 C 84.789 187.977 79.324 185.496 77.672 189.137 Z M 77.563 189.375"/><path fill="#000000" stroke="none" d="M 77.711 189.051 C 75.941 192.637 81.32 195.293 83.094 191.707 L 83.27 191.348 C 85.043 187.758 79.66 185.105 77.891 188.691 Z M 77.711 189.051"/><path fill="#000000" stroke="none" d="M 77.91 188.652 C 76.09 192.215 81.43 194.945 83.25 191.383 L 83.266 191.359 C 85.086 187.797 79.746 185.066 77.922 188.625 Z M 77.91 188.652"/><path fill="#000000" stroke="none" d="M 78.125 188.285 C 75.852 191.578 80.789 194.988 83.063 191.695 L 84.281 189.934 C 86.555 186.641 81.617 183.23 79.344 186.523 Z M 78.125 188.285"/><path fill="#000000" stroke="none" d="M 79.414 186.426 C 77.012 189.629 81.813 193.227 84.215 190.027 L 86.246 187.313 C 88.648 184.113 83.848 180.516 81.445 183.715 Z M 79.414 186.426"/><path fill="#000000" stroke="none" d="M 81.496 183.648 C 79.012 186.785 83.711 190.512 86.199 187.379 L 88.855 184.027 C 91.34 180.895 86.641 177.164 84.152 180.301 Z M 81.496 183.648"/><path fill="#000000" stroke="none" d="M 84.168 180.281 C 81.66 183.398 86.332 187.16 88.84 184.043 L 89.031 183.813 C 91.539 180.695 86.863 176.934 84.355 180.047 Z M 84.168 180.281"/><path fill="#000000" stroke="none" d="M 84.535 179.848 C 81.758 182.723 86.074 186.891 88.852 184.012 L 92.746 179.977 C 95.523 177.098 91.207 172.93 88.43 175.809 Z M 84.535 179.848"/><path fill="#000000" stroke="none" d="M 88.559 175.684 C 85.613 178.395 89.676 182.809 92.621 180.102 L 104.688 168.996 C 107.633 166.289 103.57 161.875 100.625 164.582 Z M 88.559 175.684"/><path fill="#000000" stroke="none" d="M 100.684 164.527 C 97.672 167.16 101.613 171.68 104.629 169.051 L 118.043 157.352 C 121.055 154.723 117.113 150.203 114.098 152.832 Z M 100.684 164.527"/><path fill="#000000" stroke="none" d="M 114.105 152.824 C 111.082 155.445 115.012 159.98 118.035 157.359 L 118.832 156.668 C 121.855 154.047 117.926 149.516 114.902 152.133 Z M 114.105 152.824"/><path fill="#000000" stroke="none" d="M 115.004 152.051 C 111.871 154.535 115.598 159.238 118.73 156.75 L 129.539 148.18 C 132.676 145.695 128.945 140.996 125.813 143.48 Z M 115.004 152.051"/><path fill="#000000" stroke="none" d="M 125.891 143.418 C 122.676 145.801 126.246 150.621 129.461 148.242 L 140.414 140.129 C 143.629 137.75 140.059 132.926 136.844 135.309 Z M 125.891 143.418"/><path fill="#000000" stroke="none" d="M 136.914 135.258 C 133.633 137.543 137.063 142.465 140.344 140.18 L 150.832 132.867 C 154.113 130.578 150.684 125.656 147.402 127.945 Z M 136.914 135.258"/><path fill="#000000" stroke="none" d="M 147.41 127.941 C 144.121 130.219 147.539 135.148 150.824 132.871 L 151.629 132.316 C 154.914 130.039 151.5 125.105 148.211 127.383 Z M 147.41 127.941"/><path fill="#000000" stroke="none" d="M 148.336 127.305 C 144.938 129.414 148.105 134.512 151.504 132.398 L 164.539 124.293 C 167.938 122.18 164.766 117.086 161.371 119.195 Z M 148.336 127.305"/><path fill="#000000" stroke="none" d="M 161.457 119.145 C 157.992 121.141 160.984 126.34 164.449 124.344 L 176.535 117.391 C 180.004 115.395 177.012 110.195 173.543 112.191 Z M 161.457 119.145"/><path fill="#000000" stroke="none" d="M 173.609 112.152 C 170.094 114.063 172.957 119.336 176.473 117.426 L 185.008 112.789 C 188.523 110.879 185.66 105.605 182.145 107.516 Z M 173.609 112.152"/><path fill="#000000" stroke="none" d="M 182.203 107.484 C 178.648 109.313 181.391 114.648 184.949 112.82 L 190.316 110.059 C 193.875 108.23 191.129 102.895 187.574 104.723 Z M 182.203 107.484"/><path fill="#000000" stroke="none" d="M 187.645 104.688 C 184.039 106.422 186.641 111.828 190.246 110.094 L 193.25 108.648 C 196.855 106.914 194.254 101.508 190.648 103.242 Z M 187.645 104.688"/><path fill="#000000" stroke="none" d="M 190.664 103.234 C 187.051 104.949 189.621 110.371 193.234 108.656 L 193.891 108.344 C 197.504 106.629 194.93 101.211 191.316 102.926 Z M 190.664 103.234"/><path fill="#000000" stroke="none" d="M 191.324 102.922 C 187.707 104.625 190.262 110.055 193.883 108.348 L 194.188 108.207 C 197.805 106.5 195.246 101.074 191.629 102.777 Z M 191.324 102.922"/><path fill="#000000" stroke="none" d="M 191.629 102.777 C 188.012 104.48 190.563 109.91 194.184 108.207 L 194.258 108.172 C 197.879 106.469 195.324 101.039 191.707 102.742 Z M 191.629 102.777"/><path fill="#000000" stroke="none" d="M 191.707 102.742 C 188.086 104.441 190.637 109.871 194.258 108.172 L 194.277 108.164 C 197.898 106.461 195.344 101.031 191.723 102.734 Z M 191.707 102.742"/><path fill="#000000" stroke="none" d="M 77.723 303.113 C 75.098 306.133 79.625 310.07 82.25 307.055 L 82.418 306.859 C 85.043 303.844 80.516 299.906 77.891 302.922 Z M 77.723 303.113"/><path fill="#000000" stroke="none" d="M 77.891 302.922 C 75.266 305.941 79.793 309.879 82.418 306.859 L 82.793 306.426 C 85.422 303.41 80.895 299.469 78.27 302.488 Z M 77.891 302.922"/><path fill="#000000" stroke="none" d="M 78.293 302.461 C 75.629 305.449 80.109 309.441 82.77 306.453 L 83.418 305.73 C 86.078 302.742 81.598 298.75 78.938 301.738 Z M 78.293 302.461"/><path fill="#000000" stroke="none" d="M 78.949 301.723 C 76.27 304.691 80.723 308.711 83.402 305.742 L 84.414 304.625 C 87.094 301.652 82.641 297.633 79.961 300.605 Z M 78.949 301.723"/><path fill="#000000" stroke="none" d="M 79.965 300.598 C 77.277 303.559 81.719 307.59 84.406 304.633 L 85.758 303.145 C 88.449 300.184 84.008 296.148 81.316 299.109 Z M 79.965 300.598"/><path fill="#000000" stroke="none" d="M 81.324 299.102 C 78.625 302.051 83.047 306.102 85.75 303.152 L 85.848 303.047 C 88.551 300.098 84.129 296.043 81.426 298.992 Z M 81.324 299.102"/><path fill="#000000" stroke="none" d="M 81.508 298.906 C 78.691 301.746 82.953 305.973 85.77 303.129 L 87.98 300.902 C 90.797 298.059 86.535 293.836 83.719 296.676 Z M 81.508 298.906"/><path fill="#000000" stroke="none" d="M 83.781 296.617 C 80.883 299.375 85.02 303.719 87.918 300.961 L 97.527 291.809 C 100.422 289.051 96.285 284.707 93.387 287.465 Z M 83.781 296.617"/><path fill="#000000" stroke="none" d="M 93.422 287.434 C 90.484 290.148 94.555 294.555 97.492 291.84 L 108.984 281.23 C 111.922 278.516 107.852 274.109 104.914 276.824 Z M 93.422 287.434"/><path fill="#000000" stroke="none" d="M 104.918 276.82 C 101.973 279.527 106.035 283.941 108.977 281.234 L 109.547 280.715 C 112.488 278.008 108.43 273.59 105.484 276.297 Z M 104.918 276.82"/><path fill="#000000" stroke="none" d="M 105.57 276.223 C 102.523 278.816 106.414 283.383 109.461 280.789 L 120.785 271.145 C 123.832 268.551 119.941 263.984 116.895 266.578 Z M 105.57 276.223"/><path fill="#000000" stroke="none" d="M 116.949 266.531 C 113.844 269.051 117.625 273.711 120.73 271.191 L 132.43 261.695 C 135.535 259.172 131.754 254.516 128.648 257.035 Z M 116.949 266.531"/><path fill="#000000" stroke="none" d="M 128.691 257 C 125.539 259.461 129.234 264.191 132.387 261.73 L 143.523 253.031 C 146.676 250.57 142.984 245.84 139.832 248.301 Z M 128.691 257"/><path fill="#000000" stroke="none" d="M 139.836 248.297 C 136.68 250.754 140.363 255.488 143.52 253.035 L 144.371 252.375 C 147.527 249.918 143.844 245.18 140.688 247.637 Z M 139.836 248.297"/><path fill="#000000" stroke="none" d="M 140.754 247.586 C 137.527 249.953 141.078 254.789 144.305 252.422 L 152.289 246.563 C 155.512 244.195 151.961 239.359 148.738 241.727 Z M 140.754 247.586"/><path fill="#000000" stroke="none" d="M 148.824 241.664 C 145.516 243.914 148.895 248.875 152.199 246.625 L 166.742 236.727 C 170.047 234.477 166.672 229.516 163.363 231.766 Z M 148.824 241.664"/><path fill="#000000" stroke="none" d="M 163.414 231.734 C 160.063 233.918 163.344 238.945 166.691 236.758 L 178.172 229.27 C 181.52 227.082 178.242 222.059 174.891 224.242 Z M 163.414 231.734"/><path fill="#000000" stroke="none" d="M 174.93 224.219 C 171.547 226.355 174.75 231.43 178.133 229.293 L 186.012 224.316 C 189.395 222.18 186.188 217.105 182.809 219.242 Z M 174.93 224.219"/><path fill="#000000" stroke="none" d="M 182.844 219.223 C 179.43 221.309 182.563 226.426 185.973 224.34 L 190.801 221.387 C 194.215 219.297 191.082 214.18 187.672 216.27 Z M 182.844 219.223"/><path fill="#000000" stroke="none" d="M 187.715 216.242 C 184.266 218.27 187.309 223.441 190.758 221.414 L 193.375 219.875 C 196.824 217.848 193.781 212.672 190.336 214.699 Z M 187.715 216.242"/><path fill="#000000" stroke="none" d="M 190.344 214.695 C 186.887 216.711 189.91 221.895 193.367 219.879 L 193.93 219.551 C 197.387 217.535 194.367 212.352 190.91 214.363 Z M 190.344 214.695"/><path fill="#000000" stroke="none" d="M 190.91 214.363 C 187.453 216.375 190.473 221.563 193.93 219.551 L 194 219.508 C 197.457 217.496 194.438 212.313 190.98 214.324 Z M 190.91 214.363"/><path fill="#000000" stroke="none" d="M 190.98 214.324 C 187.523 216.336 190.543 221.523 194 219.508 L 194.008 219.504 C 197.465 217.492 194.445 212.309 190.988 214.32 Z M 190.98 214.324"/><path fill="#000000" stroke="none" d="M 84.523 409.949 C 80.523 409.949 80.523 415.949 84.523 415.949 L 84.531 415.949 C 88.531 415.949 88.531 409.949 84.531 409.949 Z M 84.523 409.949"/><path fill="#000000" stroke="none" d="M 84.531 409.949 C 80.531 409.949 80.531 415.949 84.531 415.949 L 84.555 415.949 C 88.555 415.949 88.555 409.949 84.555 409.949 Z M 84.531 409.949"/><path fill="#000000" stroke="none" d="M 84.555 409.949 C 80.555 409.949 80.555 415.949 84.555 415.949 L 84.59 415.949 C 88.59 415.949 88.59 409.949 84.59 409.949 Z M 84.555 409.949"/><path fill="#000000" stroke="none" d="M 84.59 409.949 C 80.59 409.949 80.59 415.949 84.59 415.949 L 84.637 415.949 C 88.637 415.949 88.637 409.949 84.637 409.949 Z M 84.59 409.949"/><path fill="#000000" stroke="none" d="M 84.055 410.008 C 80.129 410.785 81.297 416.672 85.223 415.891 L 85.227 415.891 C 89.148 415.109 87.98 409.227 84.055 410.004 Z M 84.055 410.008"/><path fill="#000000" stroke="none" d="M 82.746 410.621 C 79.645 413.148 83.434 417.801 86.535 415.273 L 87.027 414.875 C 90.129 412.348 86.34 407.695 83.238 410.223 Z M 82.746 410.621"/><path fill="#000000" stroke="none" d="M 83.16 410.285 C 80.148 412.918 84.094 417.438 87.105 414.809 L 89.445 412.766 C 92.461 410.137 88.516 405.613 85.5 408.246 Z M 83.16 410.285"/><path fill="#000000" stroke="none" d="M 85.477 408.27 C 82.492 410.934 86.488 415.406 89.473 412.742 L 93.094 409.508 C 96.078 406.84 92.078 402.367 89.098 405.031 Z M 85.477 408.27"/><path fill="#000000" stroke="none" d="M 89.098 405.031 C 86.113 407.695 90.109 412.172 93.094 409.508 L 95.688 407.191 C 98.672 404.527 94.676 400.055 91.691 402.715 Z M 89.098 405.031"/><path fill="#000000" stroke="none" d="M 91.695 402.711 C 88.707 405.367 92.691 409.855 95.68 407.199 L 101.598 401.941 C 104.59 399.285 100.605 394.801 97.613 397.457 Z M 91.695 402.711"/><path fill="#000000" stroke="none" d="M 97.621 397.449 C 94.621 400.102 98.594 404.598 101.594 401.945 L 108.336 395.988 C 111.332 393.34 107.359 388.844 104.363 391.492 Z M 97.621 397.449"/><path fill="#000000" stroke="none" d="M 104.367 391.488 C 101.363 394.129 105.324 398.633 108.328 395.992 L 115.387 389.789 C 118.391 387.145 114.43 382.641 111.426 385.281 Z M 104.367 391.488"/><path fill="#000000" stroke="none" d="M 111.426 385.281 C 108.422 387.922 112.383 392.43 115.387 389.789 L 115.98 389.266 C 118.988 386.625 115.023 382.117 112.02 384.758 Z M 111.426 385.281"/><path fill="#000000" stroke="none" d="M 112.031 384.75 C 109.016 387.379 112.957 391.902 115.973 389.273 L 127.66 379.086 C 130.676 376.457 126.734 371.934 123.719 374.563 Z M 112.031 384.75"/><path fill="#000000" stroke="none" d="M 123.73 374.555 C 120.703 377.168 124.625 381.707 127.652 379.094 L 136.961 371.051 C 139.988 368.434 136.063 363.895 133.039 366.512 Z M 123.73 374.555"/><path fill="#000000" stroke="none" d="M 133.051 366.5 C 130.008 369.098 133.906 373.66 136.949 371.063 L 146.461 362.93 C 149.504 360.332 145.605 355.77 142.566 358.371 Z M 133.051 366.5"/><path fill="#000000" stroke="none" d="M 142.574 358.359 C 139.523 360.945 143.398 365.523 146.453 362.938 L 156.73 354.234 C 159.781 351.648 155.902 347.07 152.852 349.656 Z M 142.574 358.359"/><path fill="#000000" stroke="none" d="M 152.863 349.648 C 149.797 352.219 153.652 356.816 156.719 354.242 L 168.16 344.645 C 171.227 342.074 167.371 337.477 164.305 340.047 Z M 152.863 349.648"/><path fill="#000000" stroke="none" d="M 164.313 340.039 C 161.238 342.602 165.082 347.211 168.152 344.648 L 176.051 338.074 C 179.125 335.512 175.285 330.902 172.211 333.461 Z M 164.313 340.039"/><path fill="#000000" stroke="none" d="M 172.219 333.457 C 169.137 336.008 172.961 340.629 176.043 338.078 L 180.906 334.055 C 183.988 331.508 180.164 326.883 177.082 329.434 Z M 172.219 333.457"/><path fill="#000000" stroke="none" d="M 177.09 329.426 C 173.996 331.965 177.805 336.602 180.895 334.063 L 183.551 331.887 C 186.645 329.348 182.836 324.711 179.746 327.246 Z M 177.09 329.426"/><path fill="#000000" stroke="none" d="M 179.746 327.246 C 176.652 329.781 180.453 334.422 183.547 331.887 L 184.121 331.418 C 187.219 328.883 183.414 324.242 180.32 326.777 Z M 179.746 327.246"/><path fill="#000000" stroke="none" d="M 180.32 326.773 C 177.227 329.309 181.027 333.953 184.121 331.418 L 184.262 331.305 C 187.355 328.77 183.555 324.129 180.461 326.66 Z M 180.32 326.773"/><path fill="#000000" stroke="none" d="M 180.461 326.66 C 177.363 329.195 181.164 333.84 184.262 331.305 L 184.328 331.25 C 187.422 328.715 183.625 324.07 180.527 326.605 Z M 180.461 326.66"/><path fill="#000000" stroke="none" d="M 249.152 357.09 C 249.805 361.035 255.723 360.059 255.07 356.109 L 255.055 356.004 C 254.398 352.059 248.48 353.039 249.133 356.984 Z M 249.152 357.09"/><path fill="#000000" stroke="none" d="M 249.133 356.984 C 249.789 360.93 255.707 359.953 255.055 356.004 L 255.016 355.77 C 254.359 351.824 248.441 352.805 249.094 356.75 Z M 249.133 356.984"/><path fill="#000000" stroke="none" d="M 249.094 356.75 C 249.75 360.699 255.668 359.719 255.016 355.77 L 254.957 355.426 C 254.305 351.48 248.383 352.461 249.039 356.406 Z M 249.094 356.75"/><path fill="#000000" stroke="none" d="M 249.031 356.352 C 249.609 360.309 255.547 359.438 254.965 355.48 L 254.961 355.457 C 254.383 351.5 248.445 352.375 249.027 356.332 Z M 249.031 356.352"/><path fill="#000000" stroke="none" d="M 248.996 356.012 C 249.152 360.008 255.148 359.777 254.992 355.777 L 254.918 353.824 C 254.762 349.824 248.766 350.059 248.922 354.055 Z M 248.996 356.012"/><path fill="#000000" stroke="none" d="M 248.918 353.996 C 248.996 357.996 254.996 357.879 254.918 353.879 L 254.855 350.742 C 254.777 346.742 248.781 346.859 248.859 350.859 Z M 248.918 353.996"/><path fill="#000000" stroke="none" d="M 248.859 350.824 C 248.891 354.824 254.891 354.777 254.859 350.777 L 254.824 346.84 C 254.793 342.84 248.793 342.887 248.828 346.887 Z M 248.859 350.824"/><path fill="#000000" stroke="none" d="M 248.828 346.879 C 248.848 350.879 254.848 350.848 254.824 346.848 L 254.824 346.598 C 254.801 342.598 248.801 342.633 248.824 346.633 Z M 248.828 346.879"/><path fill="#000000" stroke="none" d="M 248.824 346.555 C 248.742 350.551 254.742 350.676 254.824 346.676 L 254.859 344.887 C 254.945 340.891 248.945 340.766 248.863 344.766 Z M 248.824 346.555"/><path fill="#000000" stroke="none" d="M 248.867 344.66 C 248.645 348.652 254.633 348.988 254.855 344.992 L 255.422 334.891 C 255.645 330.895 249.652 330.563 249.43 334.555 Z M 248.867 344.66"/><path fill="#000000" stroke="none" d="M 249.434 334.512 C 249.152 338.5 255.137 338.926 255.418 334.934 L 256.324 322.184 C 256.605 318.195 250.621 317.77 250.34 321.762 Z M 249.434 334.512"/><path fill="#000000" stroke="none" d="M 250.34 321.727 C 250.012 325.711 255.992 326.207 256.32 322.219 L 257.465 308.379 C 257.793 304.395 251.813 303.898 251.484 307.887 Z M 250.34 321.727"/><path fill="#000000" stroke="none" d="M 251.484 307.879 C 251.145 311.867 257.125 312.371 257.461 308.387 L 257.539 307.48 C 257.875 303.496 251.898 302.988 251.559 306.973 Z M 251.484 307.879"/><path fill="#000000" stroke="none" d="M 251.578 306.82 C 251.035 310.785 256.98 311.598 257.523 307.633 L 260.57 285.27 C 261.113 281.305 255.168 280.496 254.625 284.461 Z M 251.578 306.82"/><path fill="#000000" stroke="none" d="M 254.637 284.387 C 254 288.336 259.922 289.293 260.563 285.344 L 264.648 259.996 C 265.289 256.047 259.363 255.09 258.727 259.039 Z M 254.637 284.387"/><path fill="#000000" stroke="none" d="M 258.734 258.992 C 258.031 262.93 263.938 263.984 264.641 260.047 L 268.801 236.746 C 269.504 232.809 263.598 231.754 262.895 235.691 Z M 258.734 258.992"/><path fill="#000000" stroke="none" d="M 262.895 235.688 C 262.188 239.625 268.094 240.688 268.801 236.75 L 269.063 235.293 C 269.77 231.355 263.863 230.293 263.156 234.23 Z M 262.895 235.688"/><path fill="#000000" stroke="none" d="M 263.164 234.188 C 262.398 238.113 268.289 239.262 269.055 235.336 L 272.289 218.727 C 273.055 214.801 267.164 213.652 266.402 217.578 Z M 263.164 234.188"/><path fill="#000000" stroke="none" d="M 266.41 217.535 C 265.59 221.453 271.461 222.68 272.281 218.766 L 275.328 204.211 C 276.148 200.297 270.277 199.066 269.457 202.984 Z M 266.41 217.535"/><path fill="#000000" stroke="none" d="M 269.465 202.938 C 268.582 206.836 274.438 208.16 275.316 204.262 L 277.906 192.824 C 278.789 188.922 272.934 187.598 272.055 191.5 Z M 269.465 202.938"/><path fill="#000000" stroke="none" d="M 272.063 191.453 C 271.121 195.34 276.949 196.758 277.895 192.871 L 280.121 183.711 C 281.063 179.824 275.234 178.41 274.289 182.297 Z M 272.063 191.453"/><path fill="#000000" stroke="none" d="M 274.301 182.242 C 273.289 186.113 279.09 187.633 280.105 183.766 L 282.063 176.305 C 283.078 172.434 277.273 170.914 276.258 174.781 Z M 274.301 182.242"/><path fill="#000000" stroke="none" d="M 276.293 174.66 C 275.121 178.484 280.855 180.246 282.027 176.422 L 284.191 169.383 C 285.363 165.559 279.629 163.797 278.453 167.621 Z M 276.293 174.66"/><path fill="#000000" stroke="none" d="M 278.52 167.434 C 277.094 171.172 282.703 173.309 284.125 169.57 L 285.77 165.258 C 287.191 161.52 281.586 159.383 280.16 163.121 Z M 278.52 167.434"/><path fill="#000000" stroke="none" d="M 280.324 162.77 C 278.43 166.293 283.711 169.133 285.605 165.609 L 287.004 163.016 C 288.898 159.492 283.613 156.652 281.719 160.176 Z M 280.324 162.77"/><path fill="#000000" stroke="none" d="M 282.984 158.93 C 279.43 160.766 282.184 166.098 285.738 164.262 L 286.883 163.668 C 290.434 161.836 287.684 156.504 284.129 158.34 Z M 282.984 158.93"/><path fill="#000000" stroke="none" d="M 287.633 158.891 C 284.816 156.051 280.559 160.277 283.375 163.117 L 284.691 164.441 C 287.508 167.281 291.766 163.055 288.949 160.215 Z M 287.633 158.891"/><path fill="#000000" stroke="none" d="M 289.574 161.141 C 287.988 157.469 282.48 159.844 284.063 163.516 L 285.457 166.742 C 287.043 170.414 292.551 168.039 290.965 164.367 Z M 289.574 161.141"/><path fill="#000000" stroke="none" d="M 291.125 164.844 C 290.18 160.957 284.352 162.375 285.297 166.262 L 287.262 174.348 C 288.207 178.234 294.035 176.82 293.09 172.934 Z M 291.125 164.844"/><path fill="#000000" stroke="none" d="M 293.117 173.051 C 292.332 169.129 286.449 170.309 287.234 174.23 L 288.852 182.301 C 289.637 186.223 295.52 185.043 294.734 181.121 Z M 293.117 173.051"/><path fill="#000000" stroke="none" d="M 294.746 181.191 C 294.055 177.254 288.145 178.289 288.836 182.23 L 290.457 191.473 C 291.148 195.414 297.059 194.375 296.367 190.438 Z M 294.746 181.191"/><path fill="#000000" stroke="none" d="M 296.371 190.473 C 295.727 186.523 289.805 187.488 290.449 191.438 L 292.797 205.816 C 293.441 209.766 299.363 208.801 298.719 204.852 Z M 296.371 190.473"/><path fill="#000000" stroke="none" d="M 298.719 204.844 C 298.066 200.898 292.145 201.879 292.797 205.824 L 294.547 216.41 C 295.199 220.359 301.121 219.379 300.469 215.434 Z M 298.719 204.844"/><path fill="#000000" stroke="none" d="M 300.465 215.414 C 299.785 211.473 293.871 212.492 294.551 216.434 L 296.375 227.012 C 297.055 230.953 302.969 229.934 302.289 225.992 Z M 300.465 215.414"/><path fill="#000000" stroke="none" d="M 302.277 225.922 C 301.5 222 295.617 223.16 296.391 227.086 L 299.488 242.781 C 300.262 246.707 306.148 245.543 305.375 241.621 Z M 302.277 225.922"/><path fill="#000000" stroke="none" d="M 305.363 241.57 C 304.52 237.66 298.656 238.922 299.496 242.832 L 301.957 254.266 C 302.801 258.176 308.664 256.914 307.824 253.004 Z M 305.363 241.57"/><path fill="#000000" stroke="none" d="M 307.813 252.945 C 306.891 249.055 301.051 250.434 301.973 254.324 L 304.352 264.402 C 305.27 268.293 311.109 266.914 310.191 263.023 Z M 307.813 252.945"/><path fill="#000000" stroke="none" d="M 310.168 262.926 C 309.121 259.066 303.328 260.637 304.375 264.496 L 306.789 273.406 C 307.836 277.266 313.625 275.695 312.582 271.836 Z M 310.168 262.926"/><path fill="#000000" stroke="none" d="M 312.555 271.742 C 311.379 267.918 305.645 269.676 306.816 273.5 L 308.996 280.605 C 310.172 284.43 315.906 282.668 314.734 278.844 Z M 312.555 271.742"/><path fill="#000000" stroke="none" d="M 314.695 278.734 C 313.375 274.957 307.715 276.938 309.031 280.715 L 311.07 286.539 C 312.391 290.316 318.055 288.336 316.734 284.559 Z M 314.695 278.734"/><path fill="#000000" stroke="none" d="M 316.652 284.348 C 315.051 280.684 309.551 283.082 311.152 286.75 L 313.402 291.906 C 315.004 295.574 320.504 293.172 318.902 289.508 Z M 316.652 284.348"/><path fill="#000000" stroke="none" d="M 318.781 289.262 C 316.852 285.758 311.598 288.648 313.523 292.152 L 315.25 295.285 C 317.18 298.789 322.434 295.898 320.508 292.395 Z M 318.781 289.262"/><path fill="#000000" stroke="none" d="M 320.27 292.027 C 317.852 288.84 313.07 292.465 315.488 295.652 L 317.164 297.863 C 319.582 301.051 324.363 297.426 321.945 294.238 Z M 320.27 292.027"/><path fill="#000000" stroke="none" d="M 319.82 293.063 C 315.836 292.711 315.305 298.688 319.289 299.039 L 322.348 299.309 C 326.332 299.66 326.859 293.684 322.875 293.332 Z M 319.82 293.063"/><path fill="#000000" stroke="none" d="M 321.184 293.684 C 317.664 295.586 320.52 300.863 324.039 298.961 L 326.68 297.527 C 330.199 295.625 327.34 290.348 323.824 292.254 Z M 321.184 293.684"/><path fill="#000000" stroke="none" d="M 323.102 292.801 C 320.313 295.668 324.617 299.852 327.402 296.98 L 330.488 293.805 C 333.277 290.934 328.973 286.754 326.188 289.625 Z M 323.102 292.801"/><path fill="#000000" stroke="none" d="M 325.766 290.172 C 323.707 293.602 328.852 296.688 330.91 293.258 L 336.434 284.051 C 338.488 280.621 333.344 277.535 331.285 280.965 Z M 325.766 290.172"/><path fill="#000000" stroke="none" d="M 331.203 281.117 C 329.348 284.66 334.66 287.445 336.516 283.902 L 340.883 275.566 C 342.738 272.023 337.426 269.238 335.57 272.781 Z M 331.203 281.117"/><path fill="#000000" stroke="none" d="M 335.52 272.887 C 333.797 276.496 339.215 279.074 340.934 275.465 L 345.801 265.242 C 347.52 261.629 342.102 259.051 340.383 262.664 Z M 335.52 272.887"/><path fill="#000000" stroke="none" d="M 340.348 262.742 C 338.734 266.402 344.223 268.824 345.836 265.164 L 356.461 241.078 C 358.074 237.418 352.582 234.996 350.969 238.656 Z M 340.348 262.742"/><path fill="#000000" stroke="none" d="M 350.965 238.664 C 349.359 242.324 354.855 244.734 356.461 241.07 L 364.336 223.109 C 365.941 219.445 360.449 217.035 358.844 220.699 Z M 350.965 238.664"/><path fill="#000000" stroke="none" d="M 358.848 220.691 C 357.227 224.348 362.715 226.777 364.332 223.117 L 372.172 205.402 C 373.789 201.746 368.301 199.316 366.684 202.977 Z M 358.848 220.691"/><path fill="#000000" stroke="none" d="M 366.691 202.957 C 365.051 206.605 370.52 209.066 372.164 205.422 L 380.918 185.977 C 382.563 182.328 377.09 179.867 375.449 183.512 Z M 366.691 202.957"/><path fill="#000000" stroke="none" d="M 375.461 183.48 C 373.777 187.109 379.219 189.637 380.902 186.008 L 392.031 162.059 C 393.715 158.434 388.273 155.902 386.59 159.531 Z M 375.461 183.48"/><path fill="#000000" stroke="none" d="M 386.598 159.516 C 384.891 163.133 390.316 165.695 392.023 162.078 L 397.129 151.262 C 398.836 147.645 393.41 145.086 391.699 148.703 Z M 386.598 159.516"/><path fill="#000000" stroke="none" d="M 391.711 148.68 C 389.973 152.281 395.375 154.887 397.117 151.285 L 401.676 141.844 C 403.414 138.242 398.008 135.633 396.27 139.234 Z M 391.711 148.68"/><path fill="#000000" stroke="none" d="M 396.328 139.121 C 394.438 142.645 399.723 145.484 401.613 141.957 L 409.602 127.09 C 411.492 123.566 406.207 120.727 404.316 124.25 Z M 396.328 139.121"/><path fill="#000000" stroke="none" d="M 404.332 124.219 C 402.395 127.715 407.645 130.625 409.582 127.125 L 413.211 120.574 C 415.148 117.074 409.902 114.168 407.961 117.664 Z M 404.332 124.219"/><path fill="#000000" stroke="none" d="M 407.98 117.633 C 406 121.105 411.211 124.078 413.191 120.605 L 416.266 115.219 C 418.25 111.742 413.039 108.77 411.055 112.242 Z M 407.98 117.633"/><path fill="#000000" stroke="none" d="M 411.109 112.156 C 409.008 115.563 414.117 118.711 416.215 115.305 L 420.129 108.957 C 422.227 105.551 417.121 102.402 415.02 105.809 Z M 411.109 112.156"/><path fill="#000000" stroke="none" d="M 415.086 105.707 C 412.852 109.023 417.828 112.375 420.063 109.059 L 422.336 105.684 C 424.57 102.367 419.594 99.016 417.359 102.332 Z M 415.086 105.707"/><path fill="#000000" stroke="none" d="M 417.375 102.313 C 415.109 105.609 420.059 109.004 422.32 105.707 L 422.82 104.98 C 425.082 101.684 420.137 98.289 417.871 101.586 Z M 417.375 102.313"/><path fill="#000000" stroke="none" d="M 417.875 101.578 C 415.605 104.875 420.547 108.277 422.816 104.984 L 422.938 104.813 C 425.207 101.52 420.266 98.113 417.996 101.406 Z M 417.875 101.578"/><path fill="#000000" stroke="none" d="M 417.996 101.402 C 415.723 104.695 420.66 108.105 422.934 104.813 L 422.992 104.727 C 425.266 101.438 420.332 98.027 418.059 101.316 Z M 417.996 101.402"/><path fill="#000000" stroke="none" d="M 418.059 101.316 C 415.781 104.605 420.715 108.02 422.992 104.73 L 423.02 104.688 C 425.297 101.398 420.363 97.984 418.086 101.273 Z M 418.059 101.316"/></g></g></svg>
</svg>